# xmcd CD database file
#
# Track frame offsets:
#	150
#	19217
#	38192
#	57252
#
# Disc length: 1016 seconds
#
# Revision: 1
# Processed by: cddbd v1.5.2PL0 Copyright (c) Steve Scherf et al.
# Submitted via: CDex 1.70beta3
#
DISCID=2d03f604
DTITLE=藤井フミヤ - Go the Distance
DYEAR=1997
DGENRE=JPop
TTITLE0=Go the Distance
TTITLE1=夢はひそかに A Dream Is Wish Your Heart Makes
TTITLE2=Go the Distance (Instrumental)
TTITLE3=夢はひそかに A Dream Is Wish Your Heart Makes (Instrumental)
EXTD=YEAR: 1997
EXTT0=
EXTT1=
EXTT2=
EXTT3=
PLAYORDER=
